<svg width="683" height="613" viewBox="0 0 683 613" fill="none" xmlns="http://www.w3.org/2000/svg">
<g opacity="0.5">
<path opacity="0.2" fill-rule="evenodd" clip-rule="evenodd" d="M567.127 233.592C581.234 311.515 536.732 383.077 487.013 444.746C437.471 506.195 377.06 565.005 298.144 567.223C216.826 569.509 141.936 522.005 94.7614 455.771C50.4186 393.513 39.7229 312.02 64.9949 239.878C87.4516 175.772 153.869 147.812 213.835 115.861C279.394 80.9295 345.595 29.3395 416.062 52.822C494.463 78.9488 552.411 152.304 567.127 233.592Z" fill="#A996FF"/>
<path d="M363.519 355.574C361.25 349.857 357.623 344.779 352.951 340.779C349.393 337.734 345.311 335.383 340.918 333.835C338.632 333.029 337.138 330.702 337.674 328.337C338.21 325.973 340.57 324.471 342.874 325.227C348.652 327.124 354.018 330.137 358.659 334.11C364.415 339.038 368.884 345.293 371.679 352.335C374.474 359.378 375.511 366.995 374.7 374.528C374.047 380.603 372.207 386.476 369.302 391.819C368.144 393.948 365.396 394.474 363.385 393.121C361.373 391.768 360.865 389.049 361.977 386.895C364.112 382.755 365.471 378.245 365.972 373.589C366.63 367.474 365.788 361.291 363.519 355.574Z" fill="#CF69FC"/>
<path fill-rule="evenodd" clip-rule="evenodd" d="M293.42 539.903C277.155 543.565 260.949 533.113 257.222 516.558C253.495 500.003 263.658 483.614 279.923 479.952C296.187 476.291 312.394 486.743 316.121 503.298C319.848 519.853 309.684 536.241 293.42 539.903ZM291.01 529.198C280.835 531.488 270.364 524.97 267.927 514.148C265.491 503.326 272.159 492.949 282.333 490.658C292.507 488.367 302.979 494.886 305.415 505.708C307.852 516.53 301.184 526.907 291.01 529.198Z" fill="#0576F0"/>
<path d="M540.527 325.384C538.44 324.15 535.748 324.842 534.515 326.929L516.648 357.159C515.415 359.246 516.107 361.938 518.194 363.171L548.424 381.038C550.51 382.271 553.202 381.579 554.436 379.492L572.302 349.262C573.536 347.175 572.844 344.484 570.757 343.25L540.527 325.384Z" fill="#E3026F"/>
<path d="M261.351 293.564C263.335 291.135 263.872 287.832 262.76 284.899L255.46 265.648C254.348 262.715 251.756 260.599 248.66 260.095L228.338 256.791C225.243 256.288 222.114 257.474 220.13 259.904L207.107 275.851C205.124 278.28 204.587 281.583 205.699 284.516L212.998 303.767C214.11 306.7 216.702 308.817 219.798 309.32L240.12 312.624C243.216 313.127 246.345 311.941 248.328 309.512L261.351 293.564Z" fill="#00FE80"/>
<circle cx="611.984" cy="232.317" r="13.1681" transform="rotate(77.3121 611.984 232.317)" fill="#FF968F"/>
<path d="M191.334 346.046C191.1 343.947 188.682 342.888 186.981 344.14L157.895 365.543C156.194 366.795 156.486 369.418 158.42 370.266L191.499 384.753C193.434 385.6 195.56 384.036 195.326 381.937L191.334 346.046Z" fill="#FFA65A"/>
<path d="M91.2175 516.124C89.3318 517.648 89.0382 520.411 90.5617 522.297C92.0852 524.183 94.8488 524.476 96.7345 522.953L114.841 508.324C116.727 506.8 117.021 504.036 115.497 502.151L103.627 487.458L118.319 475.587C120.205 474.064 120.499 471.3 118.975 469.415L107.105 454.722L121.797 442.851C123.683 441.328 123.977 438.564 122.453 436.678C120.93 434.793 118.166 434.499 116.28 436.023L98.1733 450.652C96.2876 452.175 95.994 454.939 97.5175 456.825L109.388 471.517L94.6954 483.388C92.8097 484.911 92.5161 487.675 94.0396 489.561L105.91 504.253L91.2175 516.124Z" fill="#B78CFF"/>
<path d="M475.655 284.504C476.559 286.754 479.116 287.844 481.365 286.94C483.614 286.036 484.705 283.48 483.801 281.23L475.119 259.632C474.215 257.382 471.659 256.292 469.409 257.196L451.883 264.24L444.839 246.714C443.935 244.465 441.378 243.375 439.129 244.279L421.603 251.323L414.559 233.797C413.654 231.548 411.098 230.457 408.849 231.361C406.6 232.266 405.509 234.822 406.413 237.071L415.095 258.67C415.999 260.919 418.555 262.01 420.804 261.106L438.33 254.061L445.375 271.587C446.279 273.836 448.835 274.927 451.085 274.023L468.611 266.978L475.655 284.504Z" fill="#B78CFF"/>
</g>
</svg>
