<svg width="749" height="728" viewBox="0 0 749 728" fill="none" xmlns="http://www.w3.org/2000/svg">
<g opacity="0.5">
<path fill-rule="evenodd" clip-rule="evenodd" d="M363.12 107.726C441.478 88.7235 525.868 98.1455 589.575 147.662C655.676 199.039 695.389 279.698 692.053 363.389C688.797 445.077 634.579 510.017 572.991 563.673C504.504 623.34 427.469 686.446 337.803 672.018C241.249 656.481 156.873 584.133 124.965 491.58C95.7386 406.806 143.155 320.618 190.402 244.466C231.149 178.792 288.058 125.93 363.12 107.726Z" fill="#BFBEFC"/>
<path d="M317.503 189.508C315.4 187.735 312.51 187.219 309.923 188.154L292.938 194.293C290.351 195.228 288.459 197.473 287.975 200.181L284.799 217.96C284.316 220.668 285.313 223.428 287.417 225.202L301.226 236.841C303.329 238.614 306.219 239.13 308.806 238.195L325.791 232.056C328.378 231.121 330.27 228.877 330.754 226.168L333.93 208.39C334.414 205.681 333.416 202.921 331.312 201.148L317.503 189.508Z" fill="#00FE80"/>
<circle cx="362.151" cy="66.4302" r="11.5508" transform="rotate(-11.7949 362.151 66.4302)" fill="#E61B00"/>
<path d="M207.261 400.011C205.315 399.156 203.043 400.041 202.188 401.988L189.8 430.189C188.945 432.136 189.83 434.408 191.777 435.263L219.978 447.651C221.925 448.506 224.196 447.621 225.052 445.674L237.439 417.473C238.295 415.526 237.41 413.255 235.463 412.399L207.261 400.011Z" fill="#E3026F"/>
<path d="M425.524 247.363C423.674 247.462 422.625 249.527 423.636 251.079L440.919 277.626C441.93 279.178 444.242 279.054 445.081 277.403L459.43 249.161C460.269 247.51 459.005 245.569 457.155 245.668L425.524 247.363Z" fill="#EE6D00"/>
<path fill-rule="evenodd" clip-rule="evenodd" d="M453.626 376.605C456.615 390.92 447.226 404.991 432.655 408.034C418.084 411.077 403.849 401.938 400.86 387.623C397.871 373.308 407.259 359.237 421.83 356.194C436.401 353.151 450.636 362.289 453.626 376.605ZM444.203 378.572C446.073 387.527 440.213 396.623 430.688 398.611C421.163 400.6 412.152 394.61 410.282 385.656C408.412 376.701 414.273 367.605 423.798 365.616C433.323 363.627 442.333 369.617 444.203 378.572Z" fill="#0576F0"/>
<path d="M173.361 224.674C173.648 222.567 172.173 220.626 170.067 220.338C167.96 220.05 166.019 221.525 165.731 223.632L162.97 243.864C162.682 245.971 164.157 247.912 166.264 248.199L182.681 250.44L180.44 266.857C180.153 268.964 181.628 270.905 183.735 271.192L200.151 273.433L197.911 289.849C197.623 291.956 199.098 293.897 201.205 294.185C203.312 294.473 205.253 292.998 205.541 290.891L208.302 270.659C208.589 268.552 207.115 266.611 205.008 266.324L188.591 264.083L190.831 247.666C191.119 245.559 189.644 243.618 187.537 243.331L171.12 241.09L173.361 224.674Z" fill="#AA33FF"/>
<path d="M66.4003 393.615C64.6058 394.075 63.9817 396.305 65.277 397.629L87.4264 420.275C88.7216 421.599 90.9648 421.025 91.4641 419.241L100.002 388.736C100.501 386.952 98.8817 385.297 97.0871 385.756L66.4003 393.615Z" fill="#EE6D00"/>
</g>
</svg>
