<svg width="496" height="588" viewBox="0 0 496 588" fill="none" xmlns="http://www.w3.org/2000/svg">
<g opacity="0.5">
<path fill-rule="evenodd" clip-rule="evenodd" d="M226.559 57.2098C305.678 60.5626 365.718 119.696 414.96 181.746C464.027 243.575 508.132 315.427 492.963 392.903C477.333 472.738 414.54 535.365 339.562 566.84C269.085 596.426 187.232 588.961 122.403 548.461C64.795 512.472 52.1053 441.536 34.1051 376.016C14.4264 304.386 -21.3634 228.47 17.023 164.882C59.7318 94.1334 144.024 53.7121 226.559 57.2098Z" fill="#BFBEFC"/>
<path d="M300.842 282.638C294.766 283.596 289.016 286.02 284.087 289.7C280.335 292.501 277.145 295.967 274.669 299.913C273.381 301.966 270.783 302.912 268.594 301.87C266.405 300.828 265.459 298.196 266.702 296.115C269.821 290.894 273.939 286.321 278.835 282.665C284.906 278.132 291.99 275.147 299.475 273.967C306.959 272.787 314.618 273.448 321.789 275.894C327.572 277.865 332.898 280.95 337.472 284.958C339.295 286.555 339.204 289.351 337.442 291.016C335.681 292.681 332.917 292.58 331.059 291.023C327.49 288.03 323.389 285.714 318.956 284.202C313.135 282.217 306.917 281.681 300.842 282.638Z" fill="#AF05FA"/>
<path fill-rule="evenodd" clip-rule="evenodd" d="M465.274 391.513C465.274 408.184 451.517 421.699 434.548 421.699C417.579 421.699 403.822 408.184 403.822 391.513C403.822 374.841 417.579 361.326 434.548 361.326C451.517 361.326 465.274 374.841 465.274 391.513ZM454.3 391.513C454.3 401.942 445.641 410.726 434.548 410.726C423.455 410.726 414.796 401.942 414.796 391.513C414.796 381.084 423.455 372.3 434.548 372.3C445.641 372.3 454.3 381.084 454.3 391.513Z" fill="#0576F0"/>
<path d="M310.266 103.322C308.604 105.087 308.688 107.865 310.453 109.526L336.02 133.596C337.785 135.258 340.563 135.174 342.225 133.409L366.295 107.842C367.957 106.077 367.873 103.299 366.108 101.637L340.54 77.5669C338.775 75.9052 335.997 75.989 334.336 77.7541L310.266 103.322Z" fill="#E3026F"/>
<path d="M217.905 368.692C215.971 366.223 212.866 364.974 209.761 365.414L189.376 368.307C186.271 368.748 183.637 370.812 182.466 373.721L174.779 392.821C173.608 395.731 174.078 399.044 176.012 401.513L188.71 417.72C190.644 420.189 193.749 421.438 196.854 420.998L217.239 418.105C220.344 417.664 222.978 415.6 224.149 412.691L231.836 393.591C233.007 390.681 232.537 387.368 230.602 384.899L217.905 368.692Z" fill="#00FE80"/>
<circle cx="235.168" cy="13.1681" r="13.1681" fill="#E61B00"/>
<path d="M253.728 448.526C251.629 448.293 250.065 450.419 250.912 452.354L265.405 485.431C266.252 487.365 268.876 487.656 270.127 485.955L291.527 456.866C292.778 455.165 291.719 452.747 289.62 452.514L253.728 448.526Z" fill="#EE6D00"/>
<path d="M397.662 583.553C398.734 585.728 401.365 586.621 403.54 585.549C405.714 584.477 406.607 581.845 405.535 579.671L395.24 558.793C394.168 556.619 391.537 555.725 389.362 556.797L372.421 565.151L364.068 548.21C362.995 546.036 360.364 545.142 358.19 546.214L341.248 554.568L332.895 537.627C331.823 535.453 329.191 534.559 327.017 535.631C324.842 536.703 323.949 539.335 325.021 541.509L335.316 562.387C336.388 564.561 339.02 565.455 341.194 564.383L358.135 556.029L366.489 572.97C367.561 575.145 370.193 576.038 372.367 574.966L389.308 566.612L397.662 583.553Z" fill="#AA33FF"/>
<path d="M256.137 157.631C258.529 157.243 260.155 154.989 259.767 152.596C259.379 150.203 257.124 148.577 254.732 148.965L231.753 152.691C229.36 153.079 227.735 155.333 228.123 157.726L231.146 176.372L212.501 179.395C210.108 179.783 208.483 182.037 208.871 184.43L211.894 203.075L193.248 206.098C190.855 206.486 189.23 208.741 189.618 211.134C190.006 213.527 192.26 215.152 194.653 214.764L217.631 211.038C220.024 210.65 221.65 208.396 221.262 206.003L218.239 187.358L236.884 184.335C239.277 183.947 240.902 181.692 240.514 179.299L237.491 160.654L256.137 157.631Z" fill="#AA33FF"/>
</g>
</svg>
