<svg width="683" height="613" viewBox="0 0 683 613" fill="none" xmlns="http://www.w3.org/2000/svg">
<g opacity="0.5">
<path fill-rule="evenodd" clip-rule="evenodd" d="M567.127 233.592C581.234 311.515 536.732 383.077 487.013 444.746C437.471 506.195 377.06 565.005 298.144 567.223C216.826 569.509 141.936 522.005 94.7614 455.771C50.4186 393.513 39.7229 312.02 64.9949 239.878C87.4516 175.772 153.869 147.812 213.835 115.861C279.394 80.9295 345.595 29.3395 416.062 52.822C494.463 78.9488 552.411 152.304 567.127 233.592Z" fill="#BFBEFC"/>
<path d="M363.519 355.572C361.25 349.855 357.623 344.777 352.951 340.777C349.393 337.732 345.311 335.381 340.918 333.833C338.632 333.027 337.138 330.7 337.674 328.335C338.21 325.971 340.57 324.469 342.874 325.225C348.652 327.122 354.018 330.135 358.659 334.108C364.415 339.036 368.884 345.291 371.679 352.333C374.474 359.376 375.511 366.993 374.7 374.526C374.047 380.601 372.207 386.474 369.302 391.817C368.144 393.946 365.396 394.472 363.385 393.119C361.373 391.766 360.865 389.047 361.977 386.893C364.112 382.753 365.471 378.243 365.972 373.587C366.63 367.472 365.788 361.289 363.519 355.572Z" fill="#AF05FA"/>
<path fill-rule="evenodd" clip-rule="evenodd" d="M293.42 539.903C277.155 543.565 260.949 533.113 257.222 516.558C253.495 500.003 263.658 483.614 279.923 479.952C296.187 476.291 312.394 486.743 316.121 503.298C319.848 519.853 309.684 536.241 293.42 539.903ZM291.01 529.198C280.835 531.488 270.364 524.97 267.927 514.148C265.491 503.326 272.159 492.949 282.333 490.658C292.507 488.367 302.979 494.886 305.415 505.708C307.852 516.53 301.184 526.907 291.01 529.198Z" fill="#0576F0"/>
<path d="M540.527 325.382C538.44 324.148 535.748 324.84 534.515 326.927L516.648 357.157C515.415 359.244 516.107 361.936 518.194 363.169L548.424 381.036C550.51 382.269 553.202 381.577 554.436 379.49L572.302 349.26C573.536 347.173 572.844 344.482 570.757 343.248L540.527 325.382Z" fill="#E3026F"/>
<path d="M261.351 293.564C263.335 291.135 263.872 287.832 262.76 284.899L255.46 265.648C254.348 262.715 251.756 260.599 248.66 260.095L228.338 256.791C225.243 256.288 222.114 257.474 220.13 259.904L207.107 275.851C205.124 278.28 204.587 281.583 205.699 284.516L212.998 303.767C214.11 306.7 216.702 308.817 219.798 309.32L240.12 312.624C243.216 313.127 246.345 311.941 248.328 309.512L261.351 293.564Z" fill="#00FE80"/>
<circle cx="611.984" cy="232.317" r="13.1681" transform="rotate(77.3121 611.984 232.317)" fill="#E61B00"/>
<path d="M191.334 346.048C191.1 343.949 188.682 342.89 186.981 344.142L157.895 365.545C156.194 366.797 156.486 369.42 158.42 370.268L191.499 384.755C193.434 385.602 195.56 384.038 195.326 381.939L191.334 346.048Z" fill="#EE6D00"/>
<path d="M91.2175 516.124C89.3318 517.648 89.0382 520.411 90.5617 522.297C92.0852 524.183 94.8488 524.476 96.7345 522.953L114.841 508.324C116.727 506.8 117.021 504.036 115.497 502.151L103.627 487.458L118.319 475.587C120.205 474.064 120.499 471.3 118.975 469.415L107.105 454.722L121.797 442.851C123.683 441.328 123.977 438.564 122.453 436.678C120.93 434.793 118.166 434.499 116.28 436.023L98.1733 450.652C96.2876 452.175 95.994 454.939 97.5175 456.825L109.388 471.517L94.6954 483.388C92.8097 484.911 92.5161 487.675 94.0396 489.561L105.91 504.253L91.2175 516.124Z" fill="#AA33FF"/>
<path d="M475.655 284.506C476.559 286.756 479.116 287.846 481.365 286.942C483.614 286.038 484.705 283.482 483.801 281.232L475.119 259.633C474.215 257.384 471.659 256.294 469.409 257.198L451.883 264.242L444.839 246.716C443.935 244.467 441.378 243.376 439.129 244.281L421.603 251.325L414.559 233.799C413.654 231.55 411.098 230.459 408.849 231.363C406.6 232.267 405.509 234.824 406.413 237.073L415.095 258.672C415.999 260.921 418.555 262.012 420.804 261.108L438.33 254.063L445.375 271.589C446.279 273.838 448.835 274.929 451.085 274.025L468.611 266.98L475.655 284.506Z" fill="#AA33FF"/>
</g>
</svg>
