<svg width="24" height="24" viewBox="0 0 24 24" fill="none" xmlns="http://www.w3.org/2000/svg">
<path d="M12.375 0.375C5.95514 0.375 0.75 5.58202 0.75 12C0.75 18.4217 5.95514 23.625 12.375 23.625C18.7949 23.625 24 18.4217 24 12C24 5.58202 18.7949 0.375 12.375 0.375ZM12.375 21.375C7.19381 21.375 3 17.1829 3 12C3 6.82055 7.194 2.625 12.375 2.625C17.5543 2.625 21.75 6.81895 21.75 12C21.75 17.1811 17.5579 21.375 12.375 21.375ZM17.4021 9.4125C17.4021 12.5556 14.0073 12.6039 14.0073 13.7655V14.0625C14.0073 14.3731 13.7555 14.625 13.4448 14.625H11.3051C10.9945 14.625 10.7426 14.3731 10.7426 14.0625V13.6566C10.7426 11.9811 12.0129 11.3113 12.9729 10.773C13.7961 10.3116 14.3006 9.99769 14.3006 9.38653C14.3006 8.57812 13.2694 8.04155 12.4357 8.04155C11.3487 8.04155 10.8469 8.55609 10.1415 9.44634C9.95138 9.68634 9.60436 9.73092 9.36033 9.54591L8.05608 8.55694C7.81669 8.37544 7.76306 8.03822 7.93214 7.78992C9.03966 6.16364 10.4503 5.25 12.6466 5.25C14.9468 5.25 17.4021 7.0455 17.4021 9.4125ZM14.3438 17.25C14.3438 18.3356 13.4606 19.2188 12.375 19.2188C11.2894 19.2188 10.4062 18.3356 10.4062 17.25C10.4062 16.1644 11.2894 15.2812 12.375 15.2812C13.4606 15.2812 14.3438 16.1644 14.3438 17.25Z"/>
</svg>
