<svg width="19" height="24" viewBox="0 0 19 24" fill="none" xmlns="http://www.w3.org/2000/svg">
<g clip-path="url(#clip0)">
<path d="M2.75 3H6.5C6.5 1.34531 7.84531 0 9.5 0C11.1547 0 12.5 1.34531 12.5 3H16.25C17.4922 3 18.5 4.00781 18.5 5.25V21.75C18.5 22.9922 17.4922 24 16.25 24H2.75C1.50781 24 0.5 22.9922 0.5 21.75V5.25C0.5 4.00781 1.50781 3 2.75 3ZM14 19.875C14.6234 19.875 15.125 19.3734 15.125 18.75C15.125 18.1266 14.6234 17.625 14 17.625C13.3766 17.625 12.875 18.1266 12.875 18.75C12.875 19.3734 13.3766 19.875 14 19.875ZM14 15.375C14.6234 15.375 15.125 14.8734 15.125 14.25C15.125 13.6266 14.6234 13.125 14 13.125C13.3766 13.125 12.875 13.6266 12.875 14.25C12.875 14.8734 13.3766 15.375 14 15.375ZM14 10.875C14.6234 10.875 15.125 10.3734 15.125 9.75C15.125 9.12656 14.6234 8.625 14 8.625C13.3766 8.625 12.875 9.12656 12.875 9.75C12.875 10.3734 13.3766 10.875 14 10.875ZM9.5 1.875C8.87656 1.875 8.375 2.37656 8.375 3C8.375 3.62344 8.87656 4.125 9.5 4.125C10.1234 4.125 10.625 3.62344 10.625 3C10.625 2.37656 10.1234 1.875 9.5 1.875ZM3.5 19.125C3.5 19.3312 3.66875 19.5 3.875 19.5H10.625C10.8313 19.5 11 19.3312 11 19.125V18.375C11 18.1688 10.8313 18 10.625 18H3.875C3.66875 18 3.5 18.1688 3.5 18.375V19.125ZM3.5 14.625C3.5 14.8313 3.66875 15 3.875 15H10.625C10.8313 15 11 14.8313 11 14.625V13.875C11 13.6687 10.8313 13.5 10.625 13.5H3.875C3.66875 13.5 3.5 13.6687 3.5 13.875V14.625ZM3.5 10.125C3.5 10.3313 3.66875 10.5 3.875 10.5H10.625C10.8313 10.5 11 10.3313 11 10.125V9.375C11 9.16875 10.8313 9 10.625 9H3.875C3.66875 9 3.5 9.16875 3.5 9.375V10.125Z"/>
</g>
<defs>
<clipPath id="clip0">
<rect width="18" height="24" fill="white" transform="matrix(-1 0 0 1 18.5 0)"/>
</clipPath>
</defs>
</svg>
