<svg width="25" height="24" viewBox="0 0 25 24" fill="none" xmlns="http://www.w3.org/2000/svg">
<path d="M24.4616 17.7562L23.2101 10.2563C23.0882 9.53438 22.4648 9.00469 21.7289 9.00469H10.2543V6.00469H14.7542C15.1666 6.00469 15.5041 5.66719 15.5041 5.25469V0.75C15.5041 0.3375 15.1666 0 14.7542 0H2.7546C2.34212 0 2.00463 0.3375 2.00463 0.75V5.25C2.00463 5.6625 2.34212 6 2.7546 6H7.25444V9H3.2749C2.54367 9 1.91557 9.52969 1.7937 10.2516L0.542186 17.7516C0.514062 17.9156 0.5 18.0797 0.5 18.2438V22.5C0.5 23.3297 1.17029 24 1.99994 24H22.9992C23.8288 24 24.4991 23.3297 24.4991 22.5V18.2484C24.5038 18.0844 24.4897 17.9203 24.4616 17.7562ZM13.6292 11.625C13.6292 11.2125 13.9667 10.875 14.3792 10.875H15.1291C15.5416 10.875 15.8791 11.2125 15.8791 11.625V12.375C15.8791 12.7875 15.5416 13.125 15.1291 13.125H14.3792C13.9667 13.125 13.6292 12.7875 13.6292 12.375V11.625ZM12.1293 14.625H12.8792C13.2917 14.625 13.6292 14.9625 13.6292 15.375V16.125C13.6292 16.5375 13.2917 16.875 12.8792 16.875H12.1293C11.7168 16.875 11.3793 16.5375 11.3793 16.125V15.375C11.3793 14.9625 11.7168 14.625 12.1293 14.625ZM10.6293 10.875C11.0418 10.875 11.3793 11.2125 11.3793 11.625V12.375C11.3793 12.7875 11.0418 13.125 10.6293 13.125H9.87934C9.46686 13.125 9.12937 12.7875 9.12937 12.375V11.625C9.12937 11.2125 9.46686 10.875 9.87934 10.875H10.6293ZM4.25455 3.75V2.25H13.2542V3.75H4.25455ZM6.12948 13.125H5.37951C4.96702 13.125 4.62953 12.7875 4.62953 12.375V11.625C4.62953 11.2125 4.96702 10.875 5.37951 10.875H6.12948C6.54196 10.875 6.87945 11.2125 6.87945 11.625V12.375C6.87945 12.7875 6.54196 13.125 6.12948 13.125ZM6.87945 16.125V15.375C6.87945 14.9625 7.21694 14.625 7.62942 14.625H8.3794C8.79188 14.625 9.12937 14.9625 9.12937 15.375V16.125C9.12937 16.5375 8.79188 16.875 8.3794 16.875H7.62942C7.21694 16.875 6.87945 16.5375 6.87945 16.125ZM17.0041 21.375C17.0041 21.5812 16.8353 21.75 16.6291 21.75H8.3794C8.17315 21.75 8.00441 21.5812 8.00441 21.375V20.625C8.00441 20.4188 8.17315 20.25 8.3794 20.25H16.6291C16.8353 20.25 17.0041 20.4188 17.0041 20.625V21.375ZM18.129 16.125C18.129 16.5375 17.7915 16.875 17.3791 16.875H16.6291C16.2166 16.875 15.8791 16.5375 15.8791 16.125V15.375C15.8791 14.9625 16.2166 14.625 16.6291 14.625H17.3791C17.7915 14.625 18.129 14.9625 18.129 15.375V16.125ZM20.379 12.375C20.379 12.7875 20.0415 13.125 19.629 13.125H18.879C18.4665 13.125 18.129 12.7875 18.129 12.375V11.625C18.129 11.2125 18.4665 10.875 18.879 10.875H19.629C20.0415 10.875 20.379 11.2125 20.379 11.625V12.375Z"/>
</svg>
