<svg width="29" height="24" viewBox="0 0 29 24" fill="none" xmlns="http://www.w3.org/2000/svg">
<g clip-path="url(#clip0)">
<path d="M22.2849 10.591L13.0151 0.659016C12.6213 0.237058 12.0871 3.12036e-06 11.5302 0H2.6C1.44019 0 0.5 1.00734 0.5 2.25V11.818C0.500003 12.4148 0.721254 12.9871 1.11508 13.409L10.3849 23.341C11.205 24.2197 12.5346 24.2197 13.3548 23.341L22.2849 13.773C23.105 12.8943 23.105 11.4697 22.2849 10.591ZM5.4 7.5C4.24019 7.5 3.3 6.49266 3.3 5.25C3.3 4.00734 4.24019 3 5.4 3C6.55981 3 7.5 4.00734 7.5 5.25C7.5 6.49266 6.55981 7.5 5.4 7.5ZM27.8849 13.773L18.9548 23.341C18.1347 24.2197 16.805 24.2197 15.9849 23.341L15.9692 23.3241L23.5843 15.1651C24.328 14.3683 24.7375 13.3088 24.7375 12.182C24.7375 11.0551 24.3279 9.99567 23.5843 9.19884L14.9986 0H17.1302C17.6871 3.12036e-06 18.2213 0.237058 18.6151 0.659016L27.8849 10.591C28.705 11.4697 28.705 12.8943 27.8849 13.773Z"/>
</g>
<defs>
<clipPath id="clip0">
<rect width="28" height="24" fill="white" transform="translate(0.5)"/>
</clipPath>
</defs>
</svg>
