<?xml version="1.0" standalone="no"?>
<!DOCTYPE svg PUBLIC "-//W3C//DTD SVG 20010904//EN"
 "http://www.w3.org/TR/2001/REC-SVG-20010904/DTD/svg10.dtd">
<svg version="1.0" xmlns="http://www.w3.org/2000/svg"
 width="512.000000pt" height="512.000000pt" viewBox="0 0 512.000000 512.000000"
 preserveAspectRatio="xMidYMid meet">
<metadata>
Created by potrace 1.14, written by Peter Selinger 2001-2017
</metadata>
<g transform="translate(0.000000,512.000000) scale(0.100000,-0.100000)"
fill="#000000" stroke="none">
<path d="M0 2560 l0 -2560 2560 0 2560 0 0 2560 0 2560 -2560 0 -2560 0 0
-2560z m1034 2069 c33 -15 59 -71 51 -108 -3 -16 -17 -39 -31 -52 -25 -23 -32
-24 -207 -27 -207 -4 -249 3 -272 48 -24 46 -19 87 14 121 l29 29 196 0 c125
0 204 -4 220 -11z m3247 -9 c116 -36 210 -130 244 -243 31 -105 27 -130 -218
-1362 -213 -1070 -236 -1176 -267 -1240 -46 -93 -152 -200 -240 -243 -135 -66
-64 -63 -1391 -60 l-1204 3 -60 24 c-71 29 -160 113 -192 181 -31 67 -46 154
-38 219 4 31 58 312 121 626 63 313 114 575 114 581 0 9 -37 13 -126 16 -124
3 -126 3 -150 31 -36 42 -33 99 6 138 l30 30 204 -3 c199 -3 205 -4 229 -26
14 -13 28 -35 31 -48 4 -15 -47 -296 -124 -683 -71 -362 -130 -683 -130 -712
0 -71 34 -130 93 -158 l44 -21 1194 2 1194 3 63 34 c69 38 130 100 161 164 31
66 484 2361 476 2414 -8 58 -42 104 -95 131 l-44 22 -1282 0 c-912 0 -1290 3
-1313 11 -64 22 -81 110 -32 160 l29 29 1305 0 c1273 0 1306 0 1368 -20z
m-2540 -669 c50 -51 36 -133 -28 -160 -21 -8 -157 -11 -497 -9 l-468 3 -29 33
c-16 18 -29 44 -29 58 0 35 27 83 53 94 12 5 235 9 495 9 l474 1 29 -29z m486
9 c43 -26 48 -54 34 -164 -7 -50 -15 -194 -18 -321 -7 -314 16 -462 89 -585
42 -70 101 -104 165 -96 127 16 309 165 522 426 141 173 354 480 465 671 35
62 57 80 105 86 35 5 44 2 71 -25 50 -50 43 -86 -43 -228 -337 -550 -689 -954
-942 -1078 -102 -51 -185 -64 -271 -43 -195 49 -303 211 -350 528 -27 189 -10
694 28 792 21 54 89 72 145 37z m-685 -2650 c61 -23 144 -90 176 -143 34 -55
53 -128 53 -203 0 -304 -326 -553 -609 -466 -139 44 -225 144 -253 294 -23
127 31 277 142 390 70 72 171 129 260 148 64 13 166 5 231 -20z m1980 0 c61
-23 144 -90 176 -143 57 -93 70 -226 32 -337 -101 -300 -457 -444 -694 -281
-117 81 -175 240 -142 384 24 102 63 174 137 249 70 72 171 129 260 148 64 13
166 5 231 -20z"/>
<path d="M1282 1110 c-141 -71 -216 -231 -160 -340 101 -196 448 -45 448 195
0 77 -29 131 -83 156 -64 28 -132 25 -205 -11z"/>
<path d="M3262 1110 c-141 -71 -216 -231 -160 -340 101 -196 448 -45 448 195
0 77 -29 131 -83 156 -64 28 -132 25 -205 -11z"/>
</g>
</svg>
