<svg width="25" height="24" viewBox="0 0 25 24" fill="none" xmlns="http://www.w3.org/2000/svg">
<path d="M23.9552 5.55937L21.4263 0.703125C21.2003 0.267187 20.7989 0 20.3703 0H4.62817C4.19955 0 3.7982 0.267187 3.5722 0.703125L1.04333 5.55937C-0.262024 8.06719 0.895257 11.5547 3.33451 11.9531C3.50985 11.9812 3.6891 11.9953 3.86834 11.9953C5.02172 11.9953 6.04262 11.3859 6.74401 10.4438C7.44539 11.3859 8.47019 11.9953 9.61967 11.9953C10.7731 11.9953 11.794 11.3859 12.4953 10.4438C13.1967 11.3859 14.2215 11.9953 15.371 11.9953C16.5244 11.9953 17.5453 11.3859 18.2467 10.4438C18.952 11.3859 19.9729 11.9953 21.1223 11.9953C21.3055 11.9953 21.4808 11.9812 21.6562 11.9531C24.1032 11.5594 25.2644 8.07187 23.9552 5.55937ZM21.1301 13.5C20.7405 13.5 20.3547 13.4297 19.9806 13.3219V18H5.01783V13.3219C4.64376 13.425 4.258 13.5 3.86834 13.5C3.63454 13.5 3.39685 13.4812 3.16696 13.4437C2.94875 13.4062 2.73444 13.3453 2.52792 13.275V22.5C2.52792 23.3297 3.08513 24 3.77482 24H21.2314C21.9211 24 22.4783 23.3297 22.4783 22.5V13.275C22.2679 13.35 22.0575 13.4109 21.8393 13.4437C21.6016 13.4812 21.3678 13.5 21.1301 13.5Z"/>
</svg>
