<svg width="31" height="24" viewBox="0 0 31 24" fill="none" xmlns="http://www.w3.org/2000/svg">
<path d="M15.5 0C6.93948 0 0 6.9075 0 15.4286C0 18.2571 0.766927 20.9068 2.10219 23.1857C2.40411 23.7011 2.97944 24 3.57899 24H27.421C28.0206 24 28.5959 23.7011 28.8978 23.1857C30.2331 20.9068 31 18.2571 31 15.4286C31 6.9075 24.0605 0 15.5 0ZM15.5 3.42857C16.2917 3.42857 16.9305 3.97125 17.1318 4.69554C17.0721 4.81661 16.9897 4.92214 16.9461 5.05286L16.4499 6.53518C16.1738 6.72214 15.8595 6.85714 15.5005 6.85714C14.5495 6.85714 13.7783 6.08946 13.7783 5.14286C13.7783 4.19625 14.549 3.42857 15.5 3.42857ZM5.16667 18.8571C4.21568 18.8571 3.44444 18.0895 3.44444 17.1429C3.44444 16.1963 4.21568 15.4286 5.16667 15.4286C6.11766 15.4286 6.88889 16.1963 6.88889 17.1429C6.88889 18.0895 6.11766 18.8571 5.16667 18.8571ZM7.75 10.2857C6.79901 10.2857 6.02778 9.51804 6.02778 8.57143C6.02778 7.62482 6.79901 6.85714 7.75 6.85714C8.70099 6.85714 9.47222 7.62482 9.47222 8.57143C9.47222 9.51804 8.70099 10.2857 7.75 10.2857ZM21.031 6.40661L17.7303 16.2638C18.4671 16.8927 18.9444 17.8146 18.9444 18.8571C18.9444 19.485 18.7625 20.0652 18.4665 20.5714H12.5335C12.2375 20.0652 12.0556 19.485 12.0556 18.8571C12.0556 17.0389 13.4818 15.5663 15.2793 15.4505L18.5806 5.59286C18.8051 4.92 19.5348 4.55089 20.2146 4.78018C20.8911 5.00464 21.256 5.73321 21.031 6.40661ZM21.82 9.47089L22.6553 6.97714C22.842 6.90804 23.039 6.85768 23.25 6.85768C24.201 6.85768 24.9722 7.62536 24.9722 8.57196C24.9722 9.51857 24.201 10.2863 23.25 10.2863C22.6375 10.2857 22.1257 9.94982 21.82 9.47089ZM25.8333 18.8571C24.8823 18.8571 24.1111 18.0895 24.1111 17.1429C24.1111 16.1963 24.8823 15.4286 25.8333 15.4286C26.7843 15.4286 27.5556 16.1963 27.5556 17.1429C27.5556 18.0895 26.7843 18.8571 25.8333 18.8571Z"/>
</svg>
